<?xml version="1.0" encoding="UTF-8" standalone="no"?>
<!-- Generator: Adobe Illustrator 22.1.0, SVG Export Plug-In . SVG Version: 6.00 Build 0)  -->

<svg
   xmlns:dc="http://purl.org/dc/elements/1.1/"
   xmlns:cc="http://creativecommons.org/ns#"
   xmlns:rdf="http://www.w3.org/1999/02/22-rdf-syntax-ns#"
   xmlns:svg="http://www.w3.org/2000/svg"
   xmlns="http://www.w3.org/2000/svg"
   xmlns:sodipodi="http://sodipodi.sourceforge.net/DTD/sodipodi-0.dtd"
   xmlns:inkscape="http://www.inkscape.org/namespaces/inkscape"
   version="1.1"
   id="Слой_2"
   x="0px"
   y="0px"
   viewBox="0 0 140 140"
   xml:space="preserve"
   sodipodi:docname="logo.svg"
   inkscape:version="0.92.4 (5da689c313, 2019-01-14)"
   width="140"
   height="140"><metadata
   id="metadata1045"><rdf:RDF><cc:Work
       rdf:about=""><dc:format>image/svg+xml</dc:format><dc:type
         rdf:resource="http://purl.org/dc/dcmitype/StillImage" /><dc:title></dc:title></cc:Work></rdf:RDF></metadata><defs
   id="defs1043">
	
	<linearGradient
   y2="847.46417"
   x2="593.06079"
   y1="733.39978"
   x1="790.62598"
   gradientUnits="userSpaceOnUse"
   id="SVGID_5_">
		<stop
   id="stop991"
   style="stop-color:#A9D055"
   offset="0" />
		<stop
   id="stop993"
   style="stop-color:#8DC652"
   offset="0.2148" />
		<stop
   id="stop995"
   style="stop-color:#65B84E"
   offset="0.5568" />
		<stop
   id="stop997"
   style="stop-color:#4DAF4B"
   offset="0.8293" />
		<stop
   id="stop999"
   style="stop-color:#44AC4A"
   offset="0.9965" />
	</linearGradient>
	
	<linearGradient
   y2="760.08759"
   x2="627.54437"
   y1="681.33368"
   x1="763.95007"
   gradientUnits="userSpaceOnUse"
   id="SVGID_6_">
		<stop
   id="stop1004"
   style="stop-color:#A9D055"
   offset="0" />
		<stop
   id="stop1006"
   style="stop-color:#8DC652"
   offset="0.2148" />
		<stop
   id="stop1008"
   style="stop-color:#65B84E"
   offset="0.5568" />
		<stop
   id="stop1010"
   style="stop-color:#4DAF4B"
   offset="0.8293" />
		<stop
   id="stop1012"
   style="stop-color:#44AC4A"
   offset="0.9965" />
	</linearGradient>
	
	<linearGradient
   y2="661.10242"
   x2="707.71759"
   y1="716.10242"
   x1="795.71759"
   gradientUnits="userSpaceOnUse"
   id="SVGID_7_">
		<stop
   id="stop1017"
   style="stop-color:#6EBDE3"
   offset="0" />
		<stop
   id="stop1019"
   style="stop-color:#55A2D5"
   offset="0.3539" />
		<stop
   id="stop1021"
   style="stop-color:#3E8AC8"
   offset="0.7539" />
		<stop
   id="stop1023"
   style="stop-color:#3581C3"
   offset="1" />
	</linearGradient>
	
	
	
	
	
	
</defs><sodipodi:namedview
   pagecolor="#ffffff"
   bordercolor="#666666"
   borderopacity="1"
   objecttolerance="10"
   gridtolerance="10"
   guidetolerance="10"
   inkscape:pageopacity="0"
   inkscape:pageshadow="2"
   inkscape:window-width="1920"
   inkscape:window-height="1013"
   id="namedview1041"
   showgrid="false"
   showborder="false"
   inkscape:zoom="2.8284271"
   inkscape:cx="49.927923"
   inkscape:cy="91.616655"
   inkscape:window-x="-9"
   inkscape:window-y="-9"
   inkscape:window-maximized="1"
   inkscape:current-layer="Слой_2" />
<style
   type="text/css"
   id="style931">
	.st0{fill:url(#SVGID_1_);}
	.st1{fill:url(#SVGID_2_);}
	.st2{fill:url(#SVGID_3_);}
	.st3{fill:url(#SVGID_4_);}
	.st4{fill:#3273A8;}
	.st5{fill:#BF2523;}
	.st6{fill:none;}
	.st7{fill:url(#SVGID_5_);}
	.st8{fill:url(#SVGID_6_);}
	.st9{fill:url(#SVGID_7_);}
	.st10{fill:#FFFFFF;}
	.st11{font-family:'Roboto-Bold';}
	.st12{font-size:30px;}
	.st13{fill:#E12A29;}
</style>

<g
   id="g1799"
   transform="matrix(0.91863517,0,0,0.91863517,-586.36483,-613.92388)"><path
     class="st6"
     d="m 789.5,731.5 c -0.6,-3.5 -1.4,-6.8 -2.5,-10.1 l -147.6,36 c 0.6,3.8 1.6,7.5 2.8,11.1 l 0.5,-0.8 z"
     id="path989"
     inkscape:connector-curvature="0"
     style="fill:none" /><path
     class="st7"
     d="m 789.5,731.5 -146.8,36.2 -0.5,0.8 c 10.1,30.3 38.6,52.2 72.3,52.2 5.8,0 11.5,-0.7 17,-1.9 l 58,-87.3 c 0,0 0,0 0,0 z"
     id="path1002"
     style="fill:url(#SVGID_5_)"
     inkscape:connector-curvature="0" /><path
     class="st8"
     d="m 787.1,721.4 -86.8,-51.7 c -35.3,6.7 -62,37.6 -62,74.8 0,4.4 0.4,8.7 1.1,12.9 l 147.7,-36 c 0,0 0,0 0,0 z"
     id="path1015"
     style="fill:url(#SVGID_6_)"
     inkscape:connector-curvature="0" /><path
     sodipodi:nodetypes="ccc"
     class="st9"
     d="m 720.7,668.6 66.4,52.8 C 778,692.5 752,671.1 720.7,668.6 Z"
     id="path1026"
     style="fill:url(#SVGID_7_)"
     inkscape:connector-curvature="0" /><path
     class="st4"
     d="m 787.1,721.4 -66.3,-52.8 c -2.1,-0.2 -4.2,-0.3 -6.3,-0.3 -4.9,0 -9.6,0.5 -14.2,1.3 l 86.8,51.8 c 0,0 0,0 0,0 z"
     id="path1028"
     inkscape:connector-curvature="0"
     style="fill:#3273a8" /><path
     class="st5"
     d="m 789.5,731.5 -58.1,87.2 c 6,-1.4 11.7,-3.4 17,-6.1 l 41.1,-81.1 c 0,0 0,0 0,0 z"
     id="path1030"
     inkscape:connector-curvature="0"
     style="fill:#bf2523" /><g
     transform="translate(-2.298097,1.0606602)"
     id="g1787"><text
       style="font-size:30px;font-family:Roboto-Bold;fill:#ffffff"
       id="text1032"
       class="st10 st11 st12"
       transform="rotate(-14.442018)"
       x="477.43887"
       y="929.6825">chat</text>
<text
       style="font-size:29.99996376px;font-family:Roboto-Bold;fill:#ffffff;stroke-width:0.99999881"
       id="text1034"
       class="st10 st11 st12"
       transform="rotate(-13.344192)"
       x="481.95764"
       y="879.90387">MODX</text>
</g><path
     sodipodi:nodetypes="ccscccc"
     class="st13"
     d="m 775.86493,806.40764 -4.6109,-11.28609 C 783.3827,781.63818 790.7,763.95998 790.7,744.48399 c 0,-4.39458 -0.49834,-8.78916 -1.2,-12.98399 l -41.1,81.1 c 6.11445,-2.99631 11.62749,-6.79163 16.63934,-11.28608 z"
     id="path1036"
     inkscape:connector-curvature="0"
     style="fill:#e12a29;stroke-width:1.00056744" /></g>
<rect
   style="opacity:1;fill:none;fill-opacity:1;stroke:none;stroke-width:3.86975431;stroke-miterlimit:4;stroke-dasharray:none;stroke-opacity:1;paint-order:fill markers stroke"
   id="rect1801"
   width="150"
   height="150"
   x="-116.31907"
   y="-158.13899" /></svg>